{"title":"Wonder Woman (2017) HDRip XviD-MAX","magnet":"magnet:?xt=urn:btih:84d0203c847c6489ba729995ca87297f5b6a0326&dn=Wonder+Woman+%282017%29+HDRip+XviD-MAX&tr=udp%3A%2F%2Ftracker.leechers-paradise.org%3A6969&tr=udp%3A%2F%2Fzer0day.ch%3A1337&tr=udp%3A%2F%2Fopen.demonii.com%3A1337&tr=udp%3A%2F%2Ftracker.coppersurfer.tk%3A6969&tr=udp%3A%2F%2Fexodus.desync.com%3A6969","uploader":"extremezone","categoryP":"video","categoryS":"movies","size":"1618862666","seeders":"95","leechers":"260","description":" <a href=\"http://i.imgur.com/sXAqR9o.jpg\" rel=\"nofollow\" target=\"_NEW\">http://i.imgur.com/sXAqR9o.jpg</a>\r\n\r\nScreens:\r\n <a href=\"\nhttp://i.imgur.com/ZBqpmxJ.png\" rel=\"nofollow\" target=\"_NEW\">\nhttp://i.imgur.com/ZBqpmxJ.png</a> <a href=\"\nhttp://i.imgur.com/LWl9oNw.png\" rel=\"nofollow\" target=\"_NEW\">\nhttp://i.imgur.com/LWl9oNw.png</a> <a href=\"\nhttp://i.imgur.com/xVyfzSE.png\" rel=\"nofollow\" target=\"_NEW\">\nhttp://i.imgur.com/xVyfzSE.png</a> <a href=\"\nhttp://i.imgur.com/zzD5IkS.png\" rel=\"nofollow\" target=\"_NEW\">\nhttp://i.imgur.com/zzD5IkS.png</a>\r\n\r\nScreenCaps:\r\n <a href=\"\nhttp://i.imgur.com/X2W2Wsm.jpg\" rel=\"nofollow\" target=\"_NEW\">\nhttp://i.imgur.com/X2W2Wsm.jpg</a>\r\n\r\nWonder Woman (2017) HDRip XviD-MAX\r\nFormat                                   : AVI\r\nFormat/Info                              : Audio Video Interleave\r\nFormat profile                           : OpenDML\r\nFormat settings                          : rec\r\nFile size                                : 1.50 GiB\r\nDuration                                 : 2 h 21 min\r\nOverall bit rate                         : 1 523 kb/s\r\nWriting application                      : VirtualDubMod 1.5.10.2 (build 2542/release)\r\nWriting library                          : VirtualDubMod build 2542/release\r\nOriginal source form                     : MAX TORRENTZ\r\nCopyright                                : SIGISMUNT\r\n\r\nVideo\r\nID                                       : 0\r\nFormat                                   : MPEG-4 Visual\r\nFormat profile                           : Advanced <a href=\"/cdn-cgi/l/email-protection\" class=\"__cf_email__\" data-cfemail=\"4d1e24203d21280d0178\">[email&#xA0;protected]</a>\r\nFormat settings, BVOP                    : 2\r\nFormat settings, QPel                    : No\r\nFormat settings, GMC                     : No warppoints\r\nFormat settings, Matrix                  : Default (H.263)\r\nMuxing mode                              : Packed bitstream\r\nCodec ID                                 : XVID\r\nCodec ID/Hint                            : XviD\r\nDuration                                 : 2 h 21 min\r\nBit rate                                 : 1 197 kb/s\r\nWidth                                    : 720 pixels\r\nHeight                                   : 304 pixels\r\nDisplay aspect ratio                     : 2.35:1\r\nFrame rate                               : 23.976 (24000/1001) FPS\r\nColor space                              : YUV\r\nChroma subsampling                       : 4:2:0\r\nBit depth                                : 8 bits\r\nScan type                                : Progressive\r\nCompression mode                         : Lossy\r\nBits/(Pixel*Frame)                       : 0.228\r\nStream size                              : 1.18 GiB (79%)\r\nWriting library                          : XviD 66\r\n\r\nAudio\r\nID                                       : 1\r\nFormat                                   : AC-3\r\nFormat/Info                              : Audio Coding 3\r\nFormat settings, Endianness              : Big\r\nCodec ID                                 : 2000\r\nDuration                                 : 2 h 21 min\r\nBit rate mode                            : Constant\r\nBit rate                                 : 320 kb/s\r\nChannel(s)                               : 6 channels\r\nChannel positions                        : Front: L C R, Side: L R, LFE\r\nSampling rate                            : 48.0 kHz\r\nFrame rate                               : 31.250 FPS (1536 spf)\r\nBit depth                                : 16 bits\r\nCompression mode                         : Lossy\r\nStream size                              : 323 MiB (21%)\r\nAlignment                                : Aligned on interleaves\r\nInterleave, duration                     : 64  ms (1.53 video frames)\r\nInterleave, preload duration             : 192  ms","last_updated":"2017-08-29T12:06:25.984Z","parsed":{"xt":"urn:btih:84d0203c847c6489ba729995ca87297f5b6a0326","dn":"Wonder Woman (2017) HDRip XviD-MAX","tr":["udp://exodus.desync.com:6969","udp://open.demonii.com:1337","udp://tracker.coppersurfer.tk:6969","udp://tracker.leechers-paradise.org:6969","udp://zer0day.ch:1337"],"infoHash":"84d0203c847c6489ba729995ca87297f5b6a0326","infoHashBuffer":{"type":"Buffer","data":[132,208,32,60,132,124,100,137,186,114,153,149,202,135,41,127,91,106,3,38]},"name":"Wonder Woman (2017) HDRip XviD-MAX","announce":["udp://exodus.desync.com:6969","udp://open.demonii.com:1337","udp://tracker.coppersurfer.tk:6969","udp://tracker.leechers-paradise.org:6969","udp://zer0day.ch:1337"],"urlList":[]}}